# Blender 4.4.3
# www.blender.org
mtllib poca_fps.mtl
o Cube.001
v -2.000000 -2.500000 2.000000
v -2.000000 2.500000 2.000000
v -2.000000 -2.500000 -2.000000
v -2.000000 2.500000 -2.000000
v 2.000000 -2.500000 2.000000
v 2.000000 2.500000 2.000000
v 2.000000 -2.500000 -2.000000
v 2.000000 2.500000 -2.000000
vn -1.0000 -0.0000 -0.0000
vn -0.0000 -0.0000 -1.0000
vn 1.0000 -0.0000 -0.0000
vn -0.0000 -0.0000 1.0000
vn -0.0000 -1.0000 -0.0000
vn -0.0000 1.0000 -0.0000
vt 0.375000 0.000000
vt 0.625000 0.000000
vt 0.625000 0.250000
vt 0.375000 0.250000
vt 0.625000 0.500000
vt 0.375000 0.500000
vt 0.625000 0.750000
vt 0.375000 0.750000
vt 0.625000 1.000000
vt 0.375000 1.000000
vt 0.125000 0.500000
vt 0.125000 0.750000
vt 0.875000 0.500000
vt 0.875000 0.750000
s 0
f 1/1/1 2/2/1 4/3/1 3/4/1
f 3/4/2 4/3/2 8/5/2 7/6/2
f 7/6/3 8/5/3 6/7/3 5/8/3
f 5/8/4 6/7/4 2/9/4 1/10/4
f 3/11/5 7/6/5 5/8/5 1/12/5
f 8/5/6 4/13/6 2/14/6 6/7/6
o Cylinder
v 0.000000 -2.500000 -10.000000
v 0.000000 2.500000 -10.000000
v 1.950903 -2.500000 -9.807853
v 1.950903 2.500000 -9.807853
v 3.826835 -2.500000 -9.238795
v 3.826835 2.500000 -9.238795
v 5.555702 -2.500000 -8.314696
v 5.555702 2.500000 -8.314696
v 7.071068 -2.500000 -7.071068
v 7.071068 2.500000 -7.071068
v 8.314696 -2.500000 -5.555702
v 8.314696 2.500000 -5.555702
v 9.238795 -2.500000 -3.826835
v 9.238795 2.500000 -3.826835
v 9.807853 -2.500000 -1.950903
v 9.807853 2.500000 -1.950903
v 10.000000 -2.500000 0.000000
v 10.000000 2.500000 0.000000
v 9.807853 -2.500000 1.950903
v 9.807853 2.500000 1.950903
v 9.238795 -2.500000 3.826835
v 9.238795 2.500000 3.826835
v 8.314696 -2.500000 5.555702
v 8.314696 2.500000 5.555702
v 7.071068 -2.500000 7.071068
v 7.071068 2.500000 7.071068
v 5.555702 -2.500000 8.314696
v 5.555702 2.500000 8.314696
v 3.826835 -2.500000 9.238795
v 3.826835 2.500000 9.238795
v 1.950903 -2.500000 9.807853
v 1.950903 2.500000 9.807853
v 0.000000 -2.500000 10.000000
v 0.000000 2.500000 10.000000
v -1.950903 -2.500000 9.807853
v -1.950903 2.500000 9.807853
v -3.826835 -2.500000 9.238795
v -3.826835 2.500000 9.238795
v -5.555702 -2.500000 8.314696
v -5.555702 2.500000 8.314696
v -7.071068 -2.500000 7.071068
v -7.071068 2.500000 7.071068
v -8.314696 -2.500000 5.555702
v -8.314696 2.500000 5.555702
v -9.238795 -2.500000 3.826835
v -9.238795 2.500000 3.826835
v -9.807853 -2.500000 1.950903
v -9.807853 2.500000 1.950903
v -10.000000 -2.500000 0.000000
v -10.000000 2.500000 0.000000
v -9.807853 -2.500000 -1.950903
v -9.807853 2.500000 -1.950903
v -9.238795 -2.500000 -3.826835
v -9.238795 2.500000 -3.826835
v -8.314696 -2.500000 -5.555702
v -8.314696 2.500000 -5.555702
v -7.071068 -2.500000 -7.071068
v -7.071068 2.500000 -7.071068
v -5.555702 -2.500000 -8.314696
v -5.555702 2.500000 -8.314696
v -3.826835 -2.500000 -9.238795
v -3.826835 2.500000 -9.238795
v -1.950903 -2.500000 -9.807853
v -1.950903 2.500000 -9.807853
v 0.000000 -2.500000 -9.500000
v 0.000000 2.500000 -9.500000
v 1.853358 -2.500000 -9.317460
v 1.853358 2.500000 -9.317460
v 3.635493 -2.500000 -8.776855
v 3.635493 2.500000 -8.776855
v 5.277917 -2.500000 -7.898962
v 5.277917 2.500000 -7.898962
v 6.717515 -2.500000 -6.717515
v 6.717515 2.500000 -6.717515
v 7.898962 -2.500000 -5.277917
v 7.898962 2.500000 -5.277917
v 8.776855 -2.500000 -3.635493
v 8.776855 2.500000 -3.635493
v 9.317460 -2.500000 -1.853358
v 9.317460 2.500000 -1.853358
v 9.500000 -2.500000 0.000000
v 9.500000 2.500000 0.000000
v 9.317460 -2.500000 1.853358
v 9.317460 2.500000 1.853358
v 8.776855 -2.500000 3.635493
v 8.776855 2.500000 3.635493
v 7.898962 -2.500000 5.277917
v 7.898962 2.500000 5.277917
v 6.717515 -2.500000 6.717515
v 6.717515 2.500000 6.717515
v 5.277917 -2.500000 7.898962
v 5.277917 2.500000 7.898962
v 3.635493 -2.500000 8.776855
v 3.635493 2.500000 8.776855
v 1.853358 -2.500000 9.317460
v 1.853358 2.500000 9.317460
v 0.000000 -2.500000 9.500000
v 0.000000 2.500000 9.500000
v -1.853358 -2.500000 9.317460
v -1.853358 2.500000 9.317460
v -3.635493 -2.500000 8.776855
v -3.635493 2.500000 8.776855
v -5.277917 -2.500000 7.898962
v -5.277917 2.500000 7.898962
v -6.717515 -2.500000 6.717515
v -6.717515 2.500000 6.717515
v -7.898962 -2.500000 5.277917
v -7.898962 2.500000 5.277917
v -8.776855 -2.500000 3.635493
v -8.776855 2.500000 3.635493
v -9.317460 -2.500000 1.853358
v -9.317460 2.500000 1.853358
v -9.500000 -2.500000 0.000000
v -9.500000 2.500000 0.000000
v -9.317460 -2.500000 -1.853358
v -9.317460 2.500000 -1.853358
v -8.776855 -2.500000 -3.635493
v -8.776855 2.500000 -3.635493
v -7.898962 -2.500000 -5.277917
v -7.898962 2.500000 -5.277917
v -6.717515 -2.500000 -6.717515
v -6.717515 2.500000 -6.717515
v -5.277917 -2.500000 -7.898962
v -5.277917 2.500000 -7.898962
v -3.635493 -2.500000 -8.776855
v -3.635493 2.500000 -8.776855
v -1.853358 -2.500000 -9.317460
v -1.853358 2.500000 -9.317460
vn 0.0980 -0.0000 -0.9952
vn 0.2903 -0.0000 -0.9569
vn 0.4714 -0.0000 -0.8819
vn 0.6344 -0.0000 -0.7730
vn 0.7730 -0.0000 -0.6344
vn 0.8819 -0.0000 -0.4714
vn 0.9569 -0.0000 -0.2903
vn 0.9952 -0.0000 -0.0980
vn 0.9952 -0.0000 0.0980
vn 0.9569 -0.0000 0.2903
vn 0.8819 -0.0000 0.4714
vn 0.7730 -0.0000 0.6344
vn 0.6344 -0.0000 0.7730
vn 0.4714 -0.0000 0.8819
vn 0.2903 -0.0000 0.9569
vn 0.0980 -0.0000 0.9952
vn -0.0980 -0.0000 0.9952
vn -0.2903 -0.0000 0.9569
vn -0.4714 -0.0000 0.8819
vn -0.6344 -0.0000 0.7730
vn -0.7730 -0.0000 0.6344
vn -0.8819 -0.0000 0.4714
vn -0.9569 -0.0000 0.2903
vn -0.9952 -0.0000 0.0980
vn -0.9952 -0.0000 -0.0980
vn -0.9569 -0.0000 -0.2903
vn -0.8819 -0.0000 -0.4714
vn -0.7730 -0.0000 -0.6344
vn -0.6344 -0.0000 -0.7730
vn -0.4714 -0.0000 -0.8819
vn -0.2903 -0.0000 -0.9569
vn -0.0980 -0.0000 -0.9952
vn -0.0000 -1.0000 -0.0000
vn -0.0000 1.0000 -0.0000
vt 1.000000 0.500000
vt 1.000000 1.000000
vt 0.968750 1.000000
vt 0.968750 0.500000
vt 0.937500 1.000000
vt 0.937500 0.500000
vt 0.906250 1.000000
vt 0.906250 0.500000
vt 0.875000 1.000000
vt 0.875000 0.500000
vt 0.843750 1.000000
vt 0.843750 0.500000
vt 0.812500 1.000000
vt 0.812500 0.500000
vt 0.781250 1.000000
vt 0.781250 0.500000
vt 0.750000 1.000000
vt 0.750000 0.500000
vt 0.718750 1.000000
vt 0.718750 0.500000
vt 0.687500 1.000000
vt 0.687500 0.500000
vt 0.656250 1.000000
vt 0.656250 0.500000
vt 0.625000 1.000000
vt 0.625000 0.500000
vt 0.593750 1.000000
vt 0.593750 0.500000
vt 0.562500 1.000000
vt 0.562500 0.500000
vt 0.531250 1.000000
vt 0.531250 0.500000
vt 0.500000 1.000000
vt 0.500000 0.500000
vt 0.468750 1.000000
vt 0.468750 0.500000
vt 0.437500 1.000000
vt 0.437500 0.500000
vt 0.406250 1.000000
vt 0.406250 0.500000
vt 0.375000 1.000000
vt 0.375000 0.500000
vt 0.343750 1.000000
vt 0.343750 0.500000
vt 0.312500 1.000000
vt 0.312500 0.500000
vt 0.281250 1.000000
vt 0.281250 0.500000
vt 0.250000 1.000000
vt 0.250000 0.500000
vt 0.218750 1.000000
vt 0.218750 0.500000
vt 0.187500 1.000000
vt 0.187500 0.500000
vt 0.156250 1.000000
vt 0.156250 0.500000
vt 0.125000 1.000000
vt 0.125000 0.500000
vt 0.093750 1.000000
vt 0.093750 0.500000
vt 0.062500 1.000000
vt 0.062500 0.500000
vt 0.031250 1.000000
vt 0.031250 0.500000
vt 0.000000 1.000000
vt 0.000000 0.500000
s 0
f 9/15/7 10/16/7 12/17/7 11/18/7
f 11/18/8 12/17/8 14/19/8 13/20/8
f 13/20/9 14/19/9 16/21/9 15/22/9
f 15/22/10 16/21/10 18/23/10 17/24/10
f 17/24/11 18/23/11 20/25/11 19/26/11
f 19/26/12 20/25/12 22/27/12 21/28/12
f 21/28/13 22/27/13 24/29/13 23/30/13
f 23/30/14 24/29/14 26/31/14 25/32/14
f 25/32/15 26/31/15 28/33/15 27/34/15
f 27/34/16 28/33/16 30/35/16 29/36/16
f 29/36/17 30/35/17 32/37/17 31/38/17
f 31/38/18 32/37/18 34/39/18 33/40/18
f 33/40/19 34/39/19 36/41/19 35/42/19
f 35/42/20 36/41/20 38/43/20 37/44/20
f 37/44/21 38/43/21 40/45/21 39/46/21
f 39/46/22 40/45/22 42/47/22 41/48/22
f 41/48/23 42/47/23 44/49/23 43/50/23
f 43/50/24 44/49/24 46/51/24 45/52/24
f 45/52/25 46/51/25 48/53/25 47/54/25
f 47/54/26 48/53/26 50/55/26 49/56/26
f 49/56/27 50/55/27 52/57/27 51/58/27
f 51/58/28 52/57/28 54/59/28 53/60/28
f 53/60/29 54/59/29 56/61/29 55/62/29
f 55/62/30 56/61/30 58/63/30 57/64/30
f 57/64/31 58/63/31 60/65/31 59/66/31
f 59/66/32 60/65/32 62/67/32 61/68/32
f 61/68/33 62/67/33 64/69/33 63/70/33
f 63/70/34 64/69/34 66/71/34 65/72/34
f 65/72/35 66/71/35 68/73/35 67/74/35
f 67/74/36 68/73/36 70/75/36 69/76/36
f 69/76/37 70/75/37 72/77/37 71/78/37
f 71/78/38 72/77/38 10/79/38 9/80/38
f 73/15/23 75/18/23 76/17/23 74/16/23
f 75/18/24 77/20/24 78/19/24 76/17/24
f 77/20/25 79/22/25 80/21/25 78/19/25
f 79/22/26 81/24/26 82/23/26 80/21/26
f 81/24/27 83/26/27 84/25/27 82/23/27
f 83/26/28 85/28/28 86/27/28 84/25/28
f 85/28/29 87/30/29 88/29/29 86/27/29
f 87/30/30 89/32/30 90/31/30 88/29/30
f 89/32/31 91/34/31 92/33/31 90/31/31
f 91/34/32 93/36/32 94/35/32 92/33/32
f 93/36/33 95/38/33 96/37/33 94/35/33
f 95/38/34 97/40/34 98/39/34 96/37/34
f 97/40/35 99/42/35 100/41/35 98/39/35
f 99/42/36 101/44/36 102/43/36 100/41/36
f 101/44/37 103/46/37 104/45/37 102/43/37
f 103/46/38 105/48/38 106/47/38 104/45/38
f 105/48/7 107/50/7 108/49/7 106/47/7
f 107/50/8 109/52/8 110/51/8 108/49/8
f 109/52/9 111/54/9 112/53/9 110/51/9
f 111/54/10 113/56/10 114/55/10 112/53/10
f 113/56/11 115/58/11 116/57/11 114/55/11
f 115/58/12 117/60/12 118/59/12 116/57/12
f 117/60/13 119/62/13 120/61/13 118/59/13
f 119/62/14 121/64/14 122/63/14 120/61/14
f 121/64/15 123/66/15 124/65/15 122/63/15
f 123/66/16 125/68/16 126/67/16 124/65/16
f 125/68/17 127/70/17 128/69/17 126/67/17
f 127/70/18 129/72/18 130/71/18 128/69/18
f 129/72/19 131/74/19 132/73/19 130/71/19
f 131/74/20 133/76/20 134/75/20 132/73/20
f 133/76/21 135/78/21 136/77/21 134/75/21
f 135/78/22 73/80/22 74/79/22 136/77/22
f 9/15/39 11/18/39 75/18/39 73/15/39
f 12/17/40 10/16/40 74/16/40 76/17/40
f 11/18/39 13/20/39 77/20/39 75/18/39
f 14/19/40 12/17/40 76/17/40 78/19/40
f 13/20/39 15/22/39 79/22/39 77/20/39
f 16/21/40 14/19/40 78/19/40 80/21/40
f 15/22/39 17/24/39 81/24/39 79/22/39
f 18/23/40 16/21/40 80/21/40 82/23/40
f 17/24/39 19/26/39 83/26/39 81/24/39
f 20/25/40 18/23/40 82/23/40 84/25/40
f 19/26/39 21/28/39 85/28/39 83/26/39
f 22/27/40 20/25/40 84/25/40 86/27/40
f 21/28/39 23/30/39 87/30/39 85/28/39
f 24/29/40 22/27/40 86/27/40 88/29/40
f 23/30/39 25/32/39 89/32/39 87/30/39
f 26/31/40 24/29/40 88/29/40 90/31/40
f 25/32/39 27/34/39 91/34/39 89/32/39
f 28/33/40 26/31/40 90/31/40 92/33/40
f 27/34/39 29/36/39 93/36/39 91/34/39
f 30/35/40 28/33/40 92/33/40 94/35/40
f 29/36/39 31/38/39 95/38/39 93/36/39
f 32/37/40 30/35/40 94/35/40 96/37/40
f 31/38/39 33/40/39 97/40/39 95/38/39
f 34/39/40 32/37/40 96/37/40 98/39/40
f 33/40/39 35/42/39 99/42/39 97/40/39
f 36/41/40 34/39/40 98/39/40 100/41/40
f 35/42/39 37/44/39 101/44/39 99/42/39
f 38/43/40 36/41/40 100/41/40 102/43/40
f 37/44/39 39/46/39 103/46/39 101/44/39
f 40/45/40 38/43/40 102/43/40 104/45/40
f 39/46/39 41/48/39 105/48/39 103/46/39
f 42/47/40 40/45/40 104/45/40 106/47/40
f 41/48/39 43/50/39 107/50/39 105/48/39
f 44/49/40 42/47/40 106/47/40 108/49/40
f 43/50/39 45/52/39 109/52/39 107/50/39
f 46/51/40 44/49/40 108/49/40 110/51/40
f 45/52/39 47/54/39 111/54/39 109/52/39
f 48/53/40 46/51/40 110/51/40 112/53/40
f 47/54/39 49/56/39 113/56/39 111/54/39
f 50/55/40 48/53/40 112/53/40 114/55/40
f 49/56/39 51/58/39 115/58/39 113/56/39
f 52/57/40 50/55/40 114/55/40 116/57/40
f 51/58/39 53/60/39 117/60/39 115/58/39
f 54/59/40 52/57/40 116/57/40 118/59/40
f 53/60/39 55/62/39 119/62/39 117/60/39
f 56/61/40 54/59/40 118/59/40 120/61/40
f 55/62/39 57/64/39 121/64/39 119/62/39
f 58/63/40 56/61/40 120/61/40 122/63/40
f 57/64/39 59/66/39 123/66/39 121/64/39
f 60/65/40 58/63/40 122/63/40 124/65/40
f 59/66/39 61/68/39 125/68/39 123/66/39
f 62/67/40 60/65/40 124/65/40 126/67/40
f 61/68/39 63/70/39 127/70/39 125/68/39
f 64/69/40 62/67/40 126/67/40 128/69/40
f 63/70/39 65/72/39 129/72/39 127/70/39
f 66/71/40 64/69/40 128/69/40 130/71/40
f 65/72/39 67/74/39 131/74/39 129/72/39
f 68/73/40 66/71/40 130/71/40 132/73/40
f 67/74/39 69/76/39 133/76/39 131/74/39
f 70/75/40 68/73/40 132/73/40 134/75/40
f 69/76/39 71/78/39 135/78/39 133/76/39
f 72/77/40 70/75/40 134/75/40 136/77/40
f 71/78/39 9/80/39 73/80/39 135/78/39
f 10/79/40 72/77/40 136/77/40 74/79/40
